<svg id="OR-_DARKMODE" data-name="OR- DARKMODE" xmlns="http://www.w3.org/2000/svg" width="223" height="42" viewBox="0 0 223 42">
  <defs>
    <style>
      .cls-1 {
        fill: #f8f0f0;
      }

      .cls-1, .cls-2, .cls-3 {
        fill-rule: evenodd;
      }

      .cls-2 {
        fill: #d82027;
      }

      .cls-3 {
        fill: #fff;
      }
    </style>
  </defs>
  <path id="Shape_4_copy" data-name="Shape 4 copy" class="cls-1" d="M750.369,17.843c-1.166-.034-2.332-0.071-3.493-0.03a0.371,0.371,0,0,1,.037.126c0.045,0.556.016,1.118,0.016,1.771-0.172-.131-0.264-0.19-0.342-0.263-3.043-2.831-8.172-2.124-10.655.9a10.184,10.184,0,0,0-2.141,8.167,6.806,6.806,0,0,0,2.357,4.3,0.991,0.991,0,0,1,.4.852,6.56,6.56,0,0,0,1.942,4.938,4.1,4.1,0,0,0,6.41-.336,8.048,8.048,0,0,0,.639-8.383,6.046,6.046,0,0,0-.6-0.831c-2.219-2.591-4.8-2.243-6.917.064-0.123.133-.228,0.282-0.416,0.518a7.964,7.964,0,0,1-.448-1.213,6.452,6.452,0,0,1,.824-4.652,4.516,4.516,0,0,1,7.472-.549,5.312,5.312,0,0,1,1.238,3.349c0.024,0.924,0,1.849,0,2.8h3.662V28.7c0-3.529-.01-7.058.01-10.587C750.376,18.022,750.374,17.932,750.369,17.843Zm-10,13.7a1.224,1.224,0,0,1,2.214.019,12.283,12.283,0,0,1,.749,2.031l-0.156.055a3.191,3.191,0,0,1-.638,2.129,1.216,1.216,0,0,1-2.063,0A3.931,3.931,0,0,1,740.37,31.542Zm-45.162,8.17-2.122,2.5c-0.243-.28-0.461-0.53-0.677-0.783-0.89-1.037-1.771-2.083-2.674-3.109a0.724,0.724,0,0,1-.14-0.811,21.043,21.043,0,0,0,.688-10.937,7.484,7.484,0,0,0-1.44-3,4.519,4.519,0,0,0-5-1.889,4.9,4.9,0,0,0-3.761,4.067,13.323,13.323,0,0,0-.03,2.881,3.948,3.948,0,0,0,.342,1l0.427-.583a4.145,4.145,0,0,1,6.283-.646,6.162,6.162,0,0,1,2.089,4.631,7.576,7.576,0,0,1-1.5,5.238,4.1,4.1,0,0,1-6.411.327,6.483,6.483,0,0,1-1.935-4.771,1.2,1.2,0,0,0-.522-1.07,6.266,6.266,0,0,1-2.271-4.266,10.252,10.252,0,0,1,2.368-8.218,8.194,8.194,0,0,1,12.906,1.157,15.058,15.058,0,0,1,2.291,9.053A21.264,21.264,0,0,1,693,36.669a0.728,0.728,0,0,0,.137.59C693.8,38.082,694.5,38.882,695.208,39.711Zm-9.241-6.1,0.147-.051a12.128,12.128,0,0,0-.7-1.935,1.241,1.241,0,0,0-2.278-.051,3.929,3.929,0,0,0,.116,4.182,1.221,1.221,0,0,0,2.1-.009A3.236,3.236,0,0,0,685.967,33.61Zm70.208-3.967,0.422-.581a4.15,4.15,0,0,1,6.322-.641,6.163,6.163,0,0,1,2.062,4.586,7.581,7.581,0,0,1-1.526,5.287,4.1,4.1,0,0,1-6.374.315,6.517,6.517,0,0,1-1.952-4.878,1.027,1.027,0,0,0-.46-0.928,6.3,6.3,0,0,1-2.337-4.351,10.269,10.269,0,0,1,2.32-8.125,8.2,8.2,0,0,1,12.948,1.08,14.99,14.99,0,0,1,2.308,8.936,21.4,21.4,0,0,1-1.116,6.3,0.792,0.792,0,0,0,.151.635c0.654,0.813,1.343,1.6,2.05,2.428l-2.126,2.506c-1.18-1.379-2.336-2.71-3.458-4.069a0.871,0.871,0,0,1,0-.663,21.958,21.958,0,0,0,.771-10.447,7.8,7.8,0,0,0-1.5-3.4,4.538,4.538,0,0,0-5.023-1.956,4.9,4.9,0,0,0-3.779,4.049,13.189,13.189,0,0,0-.037,2.881A4.339,4.339,0,0,0,756.175,29.643Zm5.578,3.978,0.155-.056a12.135,12.135,0,0,0-.762-2.026,1.216,1.216,0,0,0-2.182-.021,3.91,3.91,0,0,0,.1,4.274,1.208,1.208,0,0,0,2.027.008A3.2,3.2,0,0,0,761.753,33.621Zm-35.279,6.334h-3.449V37.574a6.633,6.633,0,0,1-11.365-2.087,6.622,6.622,0,0,1,.056-3.979,0.631,0.631,0,0,0-.07-0.541c-2.035-2-2.439-6.272-.691-9.2a7.731,7.731,0,0,1,8.862-3.831,5.58,5.58,0,0,1,2.962,2.1,1.194,1.194,0,0,1,.1.2L723,20.168v-2.46h3.477V39.955ZM714,28.406a4.76,4.76,0,0,1,3.823-.358,0.7,0.7,0,0,1,.442.334c0.034,1.126.02,2.253,0.02,3.42-0.27-.077-0.447-0.137-0.628-0.179a2.053,2.053,0,0,0-2.492.964,2.262,2.262,0,0,0,.618,2.728,3.583,3.583,0,0,0,1.238.66,4.934,4.934,0,0,0,5.825-3.728A25.82,25.82,0,0,0,723,27.714a8.8,8.8,0,0,0-.252-2.023,5.024,5.024,0,0,0-5.215-4.151A4.534,4.534,0,0,0,714,28.406Zm-13.824-2.059a25.908,25.908,0,0,1,3.072.36,6.9,6.9,0,0,1,5.284,6.72,6.513,6.513,0,0,1-1.369,4.686,5.376,5.376,0,0,1-8.133.03,9.516,9.516,0,0,1-2.408-5.3,18.67,18.67,0,0,1,.963-9.73,9.635,9.635,0,0,1,2.768-3.972,6,6,0,0,1,8.977,1.24L707.248,23.2c-0.217-.253-0.4-0.48-0.6-0.7a2.752,2.752,0,0,0-4.09-.332A7.2,7.2,0,0,0,700.178,26.346Zm-0.523,3.75a7.707,7.707,0,0,0,1.467,4.951,3.359,3.359,0,0,0,1.481.975,1.755,1.755,0,0,0,2.436-1.2,3.6,3.6,0,0,0-2.052-4.334A7.364,7.364,0,0,0,699.655,30.1Zm28.858-12.413h3.41V39.957h-3.41V17.684Zm-34.974-1.735c-1.144,0-2.22.008-3.295-.012a0.537,0.537,0,0,1-.312-0.267A4.506,4.506,0,0,0,682,15.663a0.62,0.62,0,0,1-.42.277c-1.061.024-2.123,0.013-3.187,0.013,0.243-2.995,3.851-6.118,7.247-6.258A8.005,8.005,0,0,1,693.539,15.948ZM663.985,39.961h-3.422v-0.67c0-3.852.031-7.7-.02-11.556a11.272,11.272,0,0,0-.449-3.131,4.257,4.257,0,0,0-4.409-3.071,1.892,1.892,0,0,0-1.887,1.4c0.6,0.133,1.212.245,1.806,0.415a0.522,0.522,0,0,1,.286.421c-0.191.944-.428,1.88-0.661,2.865-1.367-.438-2.738-0.9-3.833.439a3.056,3.056,0,0,0-.484,3.062,5.012,5.012,0,0,1,2.229-2.215,3.809,3.809,0,0,1,4.8.641,7.075,7.075,0,0,1,1.934,6.011,6.61,6.61,0,0,1-1.644,3.917,4.073,4.073,0,0,1-5.854.471,6.166,6.166,0,0,1-2.316-4.524,0.9,0.9,0,0,0-.482-0.806,4.774,4.774,0,0,1-2.205-3.79,6.3,6.3,0,0,1,2.3-5.93,1.048,1.048,0,0,0,.247-0.642,6.378,6.378,0,0,1,4.433-5.388c1.962-.58,4.763-0.015,5.971,1.96a1.124,1.124,0,0,1,.076.212l0.152-.089V17.689h3.434V39.961Zm-10.851-6.355a12.387,12.387,0,0,0,.739,2,1.254,1.254,0,0,0,2.291.006,3.77,3.77,0,0,0-.112-4.031,1.209,1.209,0,0,0-2.125.019A11.493,11.493,0,0,0,653.134,33.606ZM620.606,33c-0.7-.6-1.381-1.165-2.032-1.77a0.586,0.586,0,0,1,0-.528,8.027,8.027,0,0,1,2.91-2.9,9.058,9.058,0,0,0,1.393-.976,2.37,2.37,0,0,0,.784-2.469,0.907,0.907,0,0,0-1.5-.43,0.645,0.645,0,0,0-.176.8,1.94,1.94,0,0,1-1.583,2.71,2.3,2.3,0,0,1-2.327-1.985,4.889,4.889,0,0,1,5.61-5.306,4.6,4.6,0,0,1,3.415,3.842,5.115,5.115,0,0,1-1.752,5.066c2.353,1.776,2.415,4.156,1.674,6.6a5.838,5.838,0,0,1-5.291,4.209c-4.85.578-8.524-1.9-9.876-6.721a14.9,14.9,0,0,1,5.206-16.04c0.287-.211.592-0.4,0.93-0.624l2.07,2.857c-0.347.272-.673,0.5-0.969,0.761-3.617,3.21-5.063,7.18-3.937,11.916a5.556,5.556,0,0,0,4.359,4.474,4.3,4.3,0,0,0,3.136-.5,2.808,2.808,0,0,0,1.5-2.844,1.353,1.353,0,0,0-.861-1.345,1.715,1.715,0,0,0-1.864.29C621.146,32.341,620.917,32.648,620.606,33Zm24.378-1.608c-0.149-.027-0.278-0.041-0.4-0.075-0.8-.223-1.6-0.451-2.432-0.685a9.849,9.849,0,0,0-.018-5.611,4.826,4.826,0,0,0-5.443-3.473,5.1,5.1,0,0,0-4.247,4.675,4.54,4.54,0,0,0,.34,2.592l1.474-1.936,2.56,2.048c-0.368.464-.736,0.87-1.038,1.322a5.919,5.919,0,0,0-1.156,4.34,2.107,2.107,0,1,0,4.068-1.036l-0.611.822-2.439-1.946,4.1-5.535,2.287,1.916c-0.425.651-.836,1.28-1.259,1.929a5.813,5.813,0,0,1,.99,5.44,5.023,5.023,0,0,1-5.11,3.8,5.238,5.238,0,0,1-5.2-4.053,13.641,13.641,0,0,1-.171-3.151,1.291,1.291,0,0,0-.43-1.108,6.466,6.466,0,0,1-1.972-4.7,9.039,9.039,0,0,1,3.577-7.858,8.327,8.327,0,0,1,12.527,3.845,11.345,11.345,0,0,1,.191,8.014A4.6,4.6,0,0,1,644.984,31.391Zm24.644-13.7v22.26h-3.41V17.692h3.41Zm-39.439-1.743a7.732,7.732,0,0,1,15.16-.122,3.4,3.4,0,0,1-.423.067c-0.513.017-1.029-.014-1.536,0.042a2.046,2.046,0,0,1-2.137-.949,4.431,4.431,0,0,0-7.314.537,0.73,0.73,0,0,1-.751.435C632.2,15.93,631.217,15.949,630.189,15.949Z" transform="translate(-548 -6)"/>
  <path id="Shape_5_copy" data-name="Shape 5 copy" class="cls-2" d="M639.682,44.139a1.975,1.975,0,0,1-2.012,2.227,2.038,2.038,0,0,1-2.1-2.115,2.123,2.123,0,0,1,2.016-2.338A2.029,2.029,0,0,1,639.682,44.139Z" transform="translate(-548 -6)"/>
  <path id="Shape_6_copy" data-name="Shape 6 copy" class="cls-2" d="M747.35,16.223c0.073,0,3.421.021,3.493,0.023a2.14,2.14,0,0,0-.374-0.862,16.577,16.577,0,0,1-.853-1.431c0.217-.061.383-0.109,0.55-0.155a7.784,7.784,0,0,0,3.556-1.766,7.02,7.02,0,0,0,1.032-1.605,0.679,0.679,0,0,0,.02-0.56c-0.52-.734-1.077-1.436-1.66-2.2a3.427,3.427,0,0,1-2.132,1.89,23.481,23.481,0,0,0-2.5.967,11.344,11.344,0,0,0-2,1.185,1.506,1.506,0,0,0-.488,1.838C746.379,14.474,746.888,15.337,747.35,16.223Z" transform="translate(-548 -6)"/>
  <path id="Rectangle_10_copy" data-name="Rectangle 10 copy" class="cls-2" d="M558,6h36.734a10,10,0,0,1,10,10V38a10,10,0,0,1-10,10H558a10,10,0,0,1-10-10V16A10,10,0,0,1,558,6Z" transform="translate(-548 -6)"/>
  <path id="Shape_7_copy" data-name="Shape 7 copy" class="cls-3" d="M600.629,38.093c-2.263,0-4.526.017-6.788-.028a1.132,1.132,0,0,1-.624-0.614c-1.159-2.137-2.282-4.292-3.44-6.43a13.753,13.753,0,0,0-1.1-1.721,3.745,3.745,0,0,0-3.979-1.522v1.975c0,1.623-.007,3.246,0,4.869,0.013,2.12.411,2.6,2.5,3.1a1.533,1.533,0,0,1,.333.282H576.8a4.211,4.211,0,0,1,.671-0.324c1.773-.355,2.275-0.928,2.288-2.787,0.022-2.986.007-5.972,0.008-8.958V20c0-2.845-.1-2.987-2.962-3.965a6.794,6.794,0,0,1,.9-0.152c3.9,0,7.807-.05,11.708.041a10.161,10.161,0,0,1,3.292.737A4.954,4.954,0,0,1,596.13,21.5a5.044,5.044,0,0,1-3.276,4.858c-0.263.122-.537,0.223-0.9,0.372,2.751,2.331,4,5.644,5.874,8.528a5.054,5.054,0,0,0,2.958,2.512ZM584.7,26.408c2.262,0.074,4.338.025,5.624-2.077A5.545,5.545,0,0,0,590.1,18.7a5.5,5.5,0,0,0-5.4-1.434v9.143ZM565.463,15.663c5.966,0.035,10.27,3.37,11.312,8.925,1.288,6.863-2.728,13.678-11.1,13.74-6.506.048-11.243-3.907-11.833-9.95C553.11,20.929,557.966,15.618,565.463,15.663Zm-6.346,11.143c0,0.68-.037,1.363.007,2.041a11.079,11.079,0,0,0,1.983,6.292c1.389,1.812,3.306,2.163,5.406,1.906a4.665,4.665,0,0,0,4.159-3.426,20.2,20.2,0,0,0,.757-9.872,13.054,13.054,0,0,0-1.281-4.123,5.493,5.493,0,0,0-9.537-.124C559.184,21.754,559.113,24.273,559.117,26.806Z" transform="translate(-548 -6)"/>
</svg>
